# Blender v3.1.2 OBJ File: '1x6 diag slope.blend'
# www.blender.org
mtllib ballast_slab.mtl
o ballast_slab_Plane.007
v 1.000000 0.500000 1.000000
v -0.000000 0.000000 -0.000000
v -0.000000 0.500000 -0.000000
v 1.000000 0.000000 1.000000
v 1.000000 0.000000 -0.000000
v 1.000000 0.500000 -0.000000
vt 1.000000 0.500000
vt 0.000000 0.000000
vt 1.000000 0.000000
vt 1.000000 0.500000
vt 0.000000 0.000000
vt 1.000000 0.000000
vt 1.000000 0.000000
vt 0.000000 1.000000
vt 0.000000 0.000000
vt 0.000000 0.500000
vt 0.000000 0.500000
vn 0.0000 0.0000 -1.0000
vn 1.0000 0.0000 0.0000
vn 0.0000 1.0000 0.0000
usemtl Material.002
s off
f 3/1/1 5/2/1 2/3/1
f 6/4/2 4/5/2 5/6/2
f 3/7/3 1/8/3 6/9/3
f 3/1/1 6/10/1 5/2/1
f 6/4/2 1/11/2 4/5/2
